<svg width="438.477" height="73.048" viewBox="0 0 438.477 73.048"
    xmlns="http://www.w3.org/2000/svg">
    <g id="svgGroup" stroke-linecap="round" fill-rule="evenodd" font-size="9pt" stroke="#000" stroke-width="0.25mm" fill="#000" style="stroke:#000;stroke-width:0.25mm;fill:#000">
        <path d="M 146.289 0.977 L 157.715 0.977 L 157.715 72.071 L 146.094 72.071 L 120.996 22.852 L 120.996 72.071 L 109.521 72.071 L 109.521 0.977 L 120.996 0.977 L 146.289 50.537 L 146.289 0.977 Z M 292.725 0.977 L 304.15 0.977 L 304.15 72.071 L 292.529 72.071 L 267.432 22.852 L 267.432 72.071 L 255.957 72.071 L 255.957 0.977 L 267.432 0.977 L 292.725 50.537 L 292.725 0.977 Z M 194.336 35.596 L 217.627 35.596 L 217.627 63.623 A 17.663 17.663 0 0 1 216.672 64.69 Q 215.556 65.847 213.888 67.255 A 59.593 59.593 0 0 1 213.647 67.456 A 18.645 18.645 0 0 1 211.081 69.235 Q 209.101 70.389 206.519 71.363 A 23.468 23.468 0 0 1 202.506 72.453 Q 200.498 72.825 198.171 72.964 A 48.736 48.736 0 0 1 195.264 73.047 A 30.52 30.52 0 0 1 188.853 72.397 A 25.562 25.562 0 0 1 184.839 71.192 A 21.071 21.071 0 0 1 176.758 65.577 Q 173.389 61.817 171.582 56.177 Q 169.955 51.099 169.793 44.339 A 63.289 63.289 0 0 1 169.775 42.823 L 169.775 30.176 A 59.877 59.877 0 0 1 170.088 23.885 Q 170.416 20.794 171.084 18.111 A 34.183 34.183 0 0 1 171.411 16.895 A 29.562 29.562 0 0 1 173.357 11.849 A 22.482 22.482 0 0 1 176.221 7.447 Q 179.395 3.662 183.936 1.831 A 24.57 24.57 0 0 1 189.477 0.351 A 32.903 32.903 0 0 1 194.385 0 A 35.552 35.552 0 0 1 199.641 0.368 Q 203.732 0.98 206.86 2.613 A 17.731 17.731 0 0 1 214.526 10.327 A 25.584 25.584 0 0 1 216.632 15.985 Q 217.298 18.655 217.554 21.735 A 44.455 44.455 0 0 1 217.627 22.754 L 206.055 22.754 A 31.987 31.987 0 0 0 205.657 19.743 Q 205.4 18.342 205.024 17.161 A 14.695 14.695 0 0 0 204.37 15.454 A 10.022 10.022 0 0 0 202.859 13.073 A 8.315 8.315 0 0 0 200.684 11.28 A 9.591 9.591 0 0 0 198.164 10.304 Q 197.05 10.035 195.751 9.951 A 18.878 18.878 0 0 0 194.531 9.912 Q 191.36 9.912 189.03 10.921 A 10.072 10.072 0 0 0 188.672 11.084 A 9.508 9.508 0 0 0 184.969 14.271 A 11.535 11.535 0 0 0 184.668 14.722 A 14.335 14.335 0 0 0 183.404 17.28 Q 182.927 18.528 182.586 19.994 A 26.493 26.493 0 0 0 182.373 20.996 A 37.2 37.2 0 0 0 181.885 24.471 Q 181.717 26.23 181.665 28.221 A 70.372 70.372 0 0 0 181.641 30.078 L 181.641 42.823 A 52.194 52.194 0 0 0 181.794 46.937 Q 181.948 48.878 182.256 50.568 A 27.369 27.369 0 0 0 182.568 52.051 Q 183.496 55.909 185.278 58.374 A 10.871 10.871 0 0 0 188.357 61.285 A 10.39 10.39 0 0 0 189.697 61.988 A 13.641 13.641 0 0 0 193.279 62.974 A 17.594 17.594 0 0 0 195.703 63.135 A 26.446 26.446 0 0 0 197.645 63.068 Q 199.634 62.921 200.977 62.452 A 15.945 15.945 0 0 0 202.218 61.961 Q 203.307 61.474 204.028 60.913 A 97.018 97.018 0 0 1 204.552 60.509 Q 205.193 60.017 205.662 59.678 A 27.529 27.529 0 0 1 205.811 59.571 L 205.811 44.922 L 194.336 44.922 L 194.336 35.596 Z M 85.449 50.342 L 85.449 0.977 L 97.314 0.977 L 97.314 50.342 A 35.664 35.664 0 0 1 96.954 55.573 Q 96.545 58.325 95.673 60.596 A 17.532 17.532 0 0 1 94.263 63.477 Q 91.211 68.457 86.06 70.752 Q 80.908 73.047 74.609 73.047 A 31.9 31.9 0 0 1 68.238 72.437 A 25.258 25.258 0 0 1 62.939 70.752 A 17.433 17.433 0 0 1 54.883 63.477 A 19.253 19.253 0 0 1 52.88 58.512 Q 51.953 54.929 51.953 50.342 L 51.953 0.977 L 63.77 0.977 L 63.77 50.342 A 32.148 32.148 0 0 0 63.893 53.258 Q 64.157 56.152 64.989 58.039 A 8.996 8.996 0 0 0 65.063 58.203 A 8.883 8.883 0 0 0 66.328 60.215 A 6.791 6.791 0 0 0 68.774 62.061 A 11.797 11.797 0 0 0 71.419 62.862 Q 72.612 63.084 73.972 63.126 A 20.867 20.867 0 0 0 74.609 63.135 Q 77.583 63.135 79.8 62.322 A 10.459 10.459 0 0 0 80.444 62.061 Q 82.861 60.987 84.155 58.203 A 11.484 11.484 0 0 0 84.892 56.019 Q 85.449 53.675 85.449 50.342 Z M 426.611 50.342 L 426.611 0.977 L 438.477 0.977 L 438.477 50.342 A 35.664 35.664 0 0 1 438.116 55.573 Q 437.707 58.325 436.835 60.596 A 17.532 17.532 0 0 1 435.425 63.477 Q 432.373 68.457 427.222 70.752 Q 422.07 73.047 415.771 73.047 A 31.9 31.9 0 0 1 409.401 72.437 A 25.258 25.258 0 0 1 404.102 70.752 A 17.433 17.433 0 0 1 396.045 63.477 A 19.253 19.253 0 0 1 394.042 58.512 Q 393.115 54.929 393.115 50.342 L 393.115 0.977 L 404.932 0.977 L 404.932 50.342 A 32.148 32.148 0 0 0 405.055 53.258 Q 405.319 56.152 406.151 58.039 A 8.996 8.996 0 0 0 406.226 58.203 A 8.883 8.883 0 0 0 407.49 60.215 A 6.791 6.791 0 0 0 409.937 62.061 A 11.797 11.797 0 0 0 412.581 62.862 Q 413.774 63.084 415.135 63.126 A 20.867 20.867 0 0 0 415.771 63.135 Q 418.746 63.135 420.962 62.322 A 10.459 10.459 0 0 0 421.606 62.061 Q 424.023 60.987 425.317 58.203 A 11.484 11.484 0 0 0 426.054 56.019 Q 426.611 53.675 426.611 50.342 Z M 334.961 0.977 L 348.096 0.977 L 360.596 34.668 L 373.096 0.977 L 386.182 0.977 L 366.553 45.899 L 366.553 72.071 L 354.59 72.071 L 354.59 45.899 L 334.961 0.977 Z M 28.027 50.684 L 28.027 0.977 L 39.844 0.977 L 39.844 50.684 A 32.348 32.348 0 0 1 39.383 56.288 Q 38.811 59.539 37.529 62.22 A 19.717 19.717 0 0 1 37.256 62.769 A 19.47 19.47 0 0 1 33.453 67.933 A 17.56 17.56 0 0 1 30.176 70.41 Q 25.684 73.047 19.971 73.047 Q 14.209 73.047 9.692 70.728 A 16.582 16.582 0 0 1 2.835 64.111 A 20.121 20.121 0 0 1 2.588 63.672 A 19.618 19.618 0 0 1 0.73 58.674 Q 0.194 56.362 0.052 53.663 A 37.998 37.998 0 0 1 0 51.66 L 11.914 51.66 Q 11.914 54.518 12.4 56.6 A 11.486 11.486 0 0 0 12.939 58.326 A 9.593 9.593 0 0 0 13.853 60.066 Q 14.673 61.284 15.796 61.988 A 7.553 7.553 0 0 0 19.393 63.117 A 9.202 9.202 0 0 0 19.971 63.135 A 6.54 6.54 0 0 0 24.17 61.695 A 7.886 7.886 0 0 0 25.869 59.785 Q 26.521 58.776 27.002 57.471 Q 27.865 55.128 28.002 51.92 A 29.078 29.078 0 0 0 28.027 50.684 Z M 230.371 0.977 L 242.236 0.977 L 242.236 72.071 L 230.371 72.071 L 230.371 0.977 Z" vector-effect="non-scaling-stroke"/>
    </g>
</svg>